<svg width="259.202" height="71.503" viewBox="0 0 259.202 71.503" xmlns="http://www.w3.org/2000/svg"><g id="svgGroup" stroke-linecap="round" fill-rule="evenodd" font-size="9pt" stroke="#000" stroke-width="0.25mm" fill="#000000" style="stroke:#000;stroke-width:0.25mm;fill:#000000"><path d="M 38 4.002 L 37 4.002 L 37 66.002 L 47 66.002 L 47 70.002 L 12 70.002 L 12 66.002 L 22 66.002 L 22 4.002 L 21 4.002 Q 14.4 4.002 11.95 5.302 A 5.011 5.011 0 0 0 10.166 6.958 Q 9.187 8.395 8.667 10.779 A 18.965 18.965 0 0 0 8.6 11.102 L 6.6 21.002 L 2.7 21.002 L 0 4.202 A 7.067 7.067 0 0 1 0.075 3.133 Q 0.26 1.927 0.9 1.252 A 4.25 4.25 0 0 1 1.619 0.636 A 2.949 2.949 0 0 1 2.85 0.152 Q 3.9 0.002 6.1 0.002 L 52.9 0.002 Q 55.1 0.002 56.15 0.152 A 2.957 2.957 0 0 1 57.4 0.649 A 4.27 4.27 0 0 1 58.1 1.252 Q 59 2.202 59 4.202 L 56.3 21.002 L 52.4 21.002 L 50.4 11.102 Q 49.557 6.886 47.354 5.479 A 4.362 4.362 0 0 0 47.05 5.302 Q 45.19 4.315 40.94 4.077 A 52.884 52.884 0 0 0 38 4.002 Z M 128.5 4.002 L 128.5 0.002 L 155.5 0.002 A 54.221 54.221 0 0 1 168.03 1.373 A 37.919 37.919 0 0 1 184.6 9.752 A 31.657 31.657 0 0 1 195.645 32.807 A 41.403 41.403 0 0 1 195.7 34.952 A 35.038 35.038 0 0 1 193.421 47.793 A 31.902 31.902 0 0 1 184.6 60.202 A 38.182 38.182 0 0 1 166.815 68.896 A 55.033 55.033 0 0 1 155.5 70.002 L 128.5 70.002 L 128.5 66.002 L 136.5 66.002 L 136.5 4.002 L 128.5 4.002 Z M 62.004 45.525 A 26.066 26.066 0 0 0 69.35 63.852 A 23.926 23.926 0 0 0 79.491 70.19 A 29.584 29.584 0 0 0 88.5 71.502 A 33.708 33.708 0 0 0 91.731 71.35 A 24.585 24.585 0 0 0 107.65 63.852 Q 115 56.202 115 45.002 A 33.757 33.757 0 0 0 114.996 44.478 A 26.066 26.066 0 0 0 107.65 26.152 A 23.926 23.926 0 0 0 97.509 19.813 A 29.584 29.584 0 0 0 88.5 18.502 A 33.708 33.708 0 0 0 85.269 18.653 A 24.585 24.585 0 0 0 69.35 26.152 Q 62 33.802 62 45.002 A 33.757 33.757 0 0 0 62.004 45.525 Z M 206.204 45.525 A 26.066 26.066 0 0 0 213.55 63.852 A 23.926 23.926 0 0 0 223.691 70.19 A 29.584 29.584 0 0 0 232.7 71.502 A 33.708 33.708 0 0 0 235.931 71.35 A 24.585 24.585 0 0 0 251.85 63.852 Q 259.2 56.202 259.2 45.002 A 33.757 33.757 0 0 0 259.196 44.478 A 26.066 26.066 0 0 0 251.85 26.152 A 23.926 23.926 0 0 0 241.709 19.813 A 29.584 29.584 0 0 0 232.7 18.502 A 33.708 33.708 0 0 0 229.469 18.653 A 24.585 24.585 0 0 0 213.55 26.152 Q 206.2 33.802 206.2 45.002 A 33.757 33.757 0 0 0 206.204 45.525 Z M 155.5 4.002 L 151.5 4.002 L 151.5 66.002 L 155.5 66.002 Q 167.1 66.002 173.65 57.652 A 28.754 28.754 0 0 0 178.638 47.548 Q 179.797 43.418 180.096 38.508 A 57.741 57.741 0 0 0 180.2 35.002 Q 180.2 24.074 176.375 16.621 A 26.499 26.499 0 0 0 173.65 12.352 Q 167.1 4.002 155.5 4.002 Z M 77.639 40.813 A 60.723 60.723 0 0 0 77.5 45.002 Q 77.5 54.802 80.3 61.052 A 14.385 14.385 0 0 0 81.978 63.931 Q 84.561 67.302 88.6 67.302 A 7.982 7.982 0 0 0 95.195 63.967 A 14.332 14.332 0 0 0 96.9 61.052 Q 99.077 56.193 99.561 49.19 A 60.723 60.723 0 0 0 99.7 45.002 Q 99.7 35.202 96.9 28.952 A 14.385 14.385 0 0 0 95.222 26.072 Q 92.639 22.702 88.6 22.702 A 7.982 7.982 0 0 0 82.006 26.036 A 14.332 14.332 0 0 0 80.3 28.952 Q 78.124 33.81 77.639 40.813 Z M 221.839 40.813 A 60.723 60.723 0 0 0 221.7 45.002 Q 221.7 54.802 224.5 61.052 A 14.385 14.385 0 0 0 226.178 63.931 Q 228.761 67.302 232.8 67.302 A 7.982 7.982 0 0 0 239.395 63.967 A 14.332 14.332 0 0 0 241.1 61.052 Q 243.277 56.193 243.761 49.19 A 60.723 60.723 0 0 0 243.9 45.002 Q 243.9 35.202 241.1 28.952 A 14.385 14.385 0 0 0 239.422 26.072 Q 236.839 22.702 232.8 22.702 A 7.982 7.982 0 0 0 226.206 26.036 A 14.332 14.332 0 0 0 224.5 28.952 Q 222.324 33.81 221.839 40.813 Z" vector-effect="non-scaling-stroke"/></g></svg>