<svg width="121.9" height="53.003" viewBox="0 0 121.9 53.003" xmlns="http://www.w3.org/2000/svg"><g id="svgGroup" stroke-linecap="round" fill-rule="evenodd" font-size="9pt" stroke="#000" stroke-width="0.25mm" fill="none" style="stroke:#000;stroke-width:0.25mm;fill:none"><path d="M 56.4 14.701 L 56.4 40.401 Q 56.4 42.483 57.173 43.881 A 4.834 4.834 0 0 0 57.7 44.651 Q 59 46.201 61.7 46.201 Q 64.291 46.201 67.619 43.53 A 23.211 23.211 0 0 0 67.9 43.301 L 69.7 45.701 A 34.918 34.918 0 0 1 64.45 49.705 Q 61.175 51.713 57.899 52.498 A 17.974 17.974 0 0 1 53.7 53.001 Q 42.274 53.001 41.462 40.315 A 31.566 31.566 0 0 1 41.4 38.301 L 41.4 12.601 A 8.114 8.114 0 0 0 41.175 10.635 A 5.485 5.485 0 0 0 39.5 7.801 Q 37.761 6.244 34.806 6.113 A 12.501 12.501 0 0 0 34.25 6.101 Q 30.9 6.101 27.65 8.801 A 8.594 8.594 0 0 0 24.429 15.009 A 10.817 10.817 0 0 0 24.4 15.801 L 24.4 51.501 L 9.4 51.501 L 9.4 5.501 Q 4.9 5.501 1.4 7.001 L 0 3.301 A 23.457 23.457 0 0 1 7.516 1.564 A 27.697 27.697 0 0 1 9.4 1.501 Q 17.6 1.501 24.2 6.501 A 27.269 27.269 0 0 1 27.685 3.68 A 19.761 19.761 0 0 1 32 1.451 A 21.351 21.351 0 0 1 35.468 0.539 Q 37.234 0.219 39.293 0.09 A 47.044 47.044 0 0 1 42.25 0.001 Q 48.5 0.001 52.45 3.951 Q 56.4 7.901 56.4 14.701 Z M 119.1 39.301 L 121.9 41.101 Q 118.5 46.501 112.9 49.751 A 24.255 24.255 0 0 1 101.815 52.962 A 29.208 29.208 0 0 1 100.3 53.001 A 29.169 29.169 0 0 1 91.736 51.803 A 22.843 22.843 0 0 1 81.3 45.151 A 27.255 27.255 0 0 1 74.2 26.212 A 36.712 36.712 0 0 1 74.2 26.201 Q 74.2 15.101 81.75 7.551 A 24.845 24.845 0 0 1 93.648 1.019 Q 97.521 0.064 102.088 0.005 A 46.857 46.857 0 0 1 102.7 0.001 Q 111.5 0.001 116.5 4.101 A 13.895 13.895 0 0 1 120.005 8.268 A 12.972 12.972 0 0 1 121.5 14.501 Q 121.5 20.801 115.95 26.151 A 18.741 18.741 0 0 1 106.011 31.101 A 26.585 26.585 0 0 1 101.3 31.501 Q 98.2 31.501 95.3 30.801 L 95.1 28.401 A 17.253 17.253 0 0 0 99.644 27.392 A 12.852 12.852 0 0 0 105.15 23.451 A 18.271 18.271 0 0 0 107.278 20.243 Q 108.477 17.902 108.665 15.532 A 11.15 11.15 0 0 0 108.7 14.651 A 16.37 16.37 0 0 0 108.51 12.07 Q 108.091 9.451 106.75 7.801 A 6.209 6.209 0 0 0 103.431 5.711 Q 102.27 5.401 100.85 5.401 Q 96.9 5.401 93.3 11.001 Q 90.382 15.54 89.829 22.578 A 43.76 43.76 0 0 0 89.7 26.001 A 42.411 42.411 0 0 0 90.102 32.026 Q 90.554 35.172 91.516 37.764 A 20.246 20.246 0 0 0 93.1 41.101 A 12.791 12.791 0 0 0 95.849 44.404 Q 98.715 46.801 102.8 46.801 A 20.858 20.858 0 0 0 118.251 40.209 A 27.324 27.324 0 0 0 119.1 39.301 Z" vector-effect="non-scaling-stroke"/></g></svg>